# xmcd CD database file
#
# Track frame offsets:
#	150
#	20739
#	40439
#	51700
#	73911
#	94325
#	107776
#	135009
#	151451
#	172063
#
# Disc length: 2483 seconds
#
# Revision: 0
# Processed by: cddbd v1.4PL0 Copyright (c) Steve Scherf et al.
# Submitted via: CDex 1.40Release
#
DISCID=9309b10a
DTITLE=Buddy Guy and Junior Wells - Chicago Style
DYEAR=1999
DGENRE=Blues
TTITLE0=Bud's Blues
TTITLE1=Everyday I Have The Blues
TTITLE2=Messin WIth The Kid
TTITLE3=Blue Monday
TTITLE4=Junior's Shuffle
TTITLE5=No Use Cryin
TTITLE6=Out Of Sight
TTITLE7=Satisfaction
TTITLE8=Barefootin'
TTITLE9=Woman Blues Boogie
EXTD=YEAR: 1999 ID3G: 0
EXTT0=
EXTT1=
EXTT2=
EXTT3=
EXTT4=
EXTT5=
EXTT6=
EXTT7=
EXTT8=
EXTT9=
PLAYORDER=
